<svg xmlns="http://www.w3.org/2000/svg" xmlns:xlink="http://www.w3.org/1999/xlink" width="132" zoomAndPan="magnify" viewBox="0 0 98.88 30.000001" height="40" preserveAspectRatio="xMidYMid meet" version="1.2"><defs><clipPath id="24a13dbb32"><path d="M 1.535156 9 L 15 9 L 15 29 L 1.535156 29 Z M 1.535156 9 "/></clipPath><clipPath id="4c6e2b0194"><path d="M 4 0 L 23.3125 0 L 23.3125 15 L 4 15 Z M 4 0 "/></clipPath><clipPath id="32a008371c"><path d="M 51.332031 8 L 62 8 L 62 29 L 51.332031 29 Z M 51.332031 8 "/></clipPath><clipPath id="00148c7743"><path d="M 51.332031 24 L 57 24 L 57 29.03125 L 51.332031 29.03125 Z M 51.332031 24 "/></clipPath><clipPath id="849c250dd8"><path d="M 60 0 L 77.460938 0 L 77.460938 29.03125 L 60 29.03125 Z M 60 0 "/></clipPath></defs><g id="7342713a5a"><g clip-rule="nonzero" clip-path="url(#24a13dbb32)"><path style=" stroke:none;fill-rule:nonzero;fill:#08823f;fill-opacity:1;" d="M 10.613281 28.773438 C 10.316406 28.210938 10.039062 27.632812 9.890625 27.007812 C 9.730469 26.378906 9.664062 25.734375 9.667969 25.101562 C 9.671875 24.878906 9.683594 24.65625 9.699219 24.433594 C 9.699219 24.433594 9.699219 24.429688 9.695312 24.429688 C 7.917969 23.542969 5.957031 21.367188 5.726562 21.105469 C 5.722656 21.101562 5.726562 21.09375 5.734375 21.097656 C 6.75 21.691406 7.300781 21.214844 7.351562 21.167969 C 7.351562 21.164062 7.351562 21.160156 7.351562 21.160156 C 4.972656 19.105469 4.878906 15.234375 4.878906 15.234375 C 4.753906 13.027344 3.65625 11.242188 1.546875 9.839844 C 1.542969 9.835938 1.542969 9.828125 1.546875 9.828125 C 4.699219 8.296875 7.476562 11.292969 7.609375 11.441406 C 7.613281 11.445312 7.617188 11.445312 7.621094 11.441406 C 7.773438 11.117188 7.359375 10.320312 7.292969 10.199219 C 7.292969 10.195312 7.296875 10.1875 7.300781 10.191406 C 11.875 12.460938 13.066406 17.863281 13.085938 18.066406 C 13.085938 18.070312 13.085938 18.070312 13.089844 18.070312 C 13.777344 17.917969 14.019531 16.957031 14.066406 16.738281 C 14.066406 16.734375 14.078125 16.734375 14.078125 16.742188 C 14.515625 23.347656 11.230469 24.078125 10.8125 24.207031 C 10.808594 24.210938 10.804688 24.207031 10.808594 24.199219 C 12.164062 18.507812 8.105469 14.632812 7.605469 14.179688 C 7.601562 14.175781 7.59375 14.183594 7.597656 14.1875 C 8.019531 14.722656 8.515625 15.714844 8.847656 16.429688 C 9.066406 16.871094 9.269531 17.328125 9.453125 17.785156 C 9.675781 18.363281 9.871094 18.949219 10.042969 19.550781 C 10.207031 20.15625 10.289062 20.78125 10.316406 21.410156 C 10.363281 22.664062 10.164062 23.898438 10.207031 25.09375 C 10.230469 25.691406 10.324219 26.277344 10.496094 26.835938 C 10.65625 27.402344 10.941406 27.921875 11.238281 28.425781 L 11.253906 28.449219 C 11.253906 28.453125 11.257812 28.457031 11.257812 28.460938 C 11.355469 28.644531 11.277344 28.875 11.082031 28.957031 C 10.90625 29.03125 10.699219 28.941406 10.613281 28.773438 "/></g><g clip-rule="nonzero" clip-path="url(#4c6e2b0194)"><path style=" stroke:none;fill-rule:nonzero;fill:#08823f;fill-opacity:1;" d="M 12.21875 2.191406 C 12.519531 1.925781 13.164062 1.792969 14.144531 1.792969 L 19.824219 1.792969 C 20.097656 1.792969 20.351562 1.886719 20.582031 2.078125 C 20.808594 2.269531 21.035156 2.683594 21.261719 3.316406 C 21.492188 3.949219 21.675781 4.339844 21.820312 4.480469 C 21.964844 4.625 22.121094 4.695312 22.289062 4.695312 C 22.960938 4.695312 23.300781 4.285156 23.300781 3.460938 C 23.300781 3.199219 23.261719 2.859375 23.1875 2.441406 C 23.113281 2.023438 23.039062 1.582031 22.972656 1.121094 C 22.902344 0.664062 22.804688 0.359375 22.679688 0.214844 C 22.558594 0.0703125 22.226562 0 21.6875 0 L 5.765625 0 C 5.40625 0 5.109375 0.0898438 4.875 0.269531 C 4.640625 0.453125 4.523438 0.667969 4.523438 0.917969 C 4.523438 1.179688 4.660156 1.398438 4.929688 1.574219 C 5.199219 1.746094 5.578125 1.832031 6.074219 1.832031 C 6.808594 1.832031 7.308594 1.925781 7.585938 2.109375 C 7.863281 2.296875 8.042969 2.746094 8.132812 3.46875 C 8.222656 4.1875 8.265625 5.5 8.265625 7.40625 L 8.265625 9.550781 C 9.890625 10.472656 11.085938 11.738281 11.953125 13.011719 C 12 12.757812 12.105469 12.554688 12.28125 12.402344 C 12.515625 12.195312 12.976562 12.09375 13.667969 12.09375 L 19.160156 12.09375 C 20.347656 12.09375 20.945312 12.589844 20.945312 13.578125 C 20.945312 13.988281 21.03125 14.316406 21.203125 14.554688 C 21.375 14.796875 21.585938 14.917969 21.832031 14.917969 C 22.066406 14.917969 22.261719 14.824219 22.421875 14.640625 C 22.578125 14.453125 22.660156 14.210938 22.660156 13.910156 C 22.660156 13.785156 22.625 13.4375 22.558594 12.863281 C 22.488281 12.285156 22.453125 11.738281 22.453125 11.21875 C 22.453125 10.875 22.472656 10.433594 22.515625 9.894531 C 22.558594 9.351562 22.578125 8.9375 22.578125 8.648438 C 22.578125 8.347656 22.492188 8.113281 22.328125 7.941406 C 22.164062 7.769531 21.964844 7.683594 21.730469 7.683594 C 21.507812 7.683594 21.324219 7.753906 21.171875 7.890625 C 21.019531 8.027344 20.945312 8.214844 20.945312 8.445312 C 20.945312 8.925781 20.824219 9.351562 20.589844 9.714844 C 20.355469 10.078125 20.015625 10.257812 19.574219 10.257812 L 14.0625 10.257812 C 13.054688 10.257812 12.417969 10.066406 12.15625 9.683594 C 11.894531 9.300781 11.761719 8.648438 11.761719 7.730469 L 11.761719 3.394531 C 11.761719 2.859375 11.914062 2.460938 12.21875 2.191406 "/></g><path style=" stroke:none;fill-rule:nonzero;fill:#08823f;fill-opacity:1;" d="M 19.90625 23.15625 C 19.910156 23.15625 19.90625 23.160156 19.90625 23.160156 C 18.597656 23.386719 17.695312 24.003906 17.167969 25.03125 C 17.167969 25.03125 16.300781 26.859375 14.730469 27.339844 C 14.730469 27.34375 14.726562 27.34375 14.726562 27.34375 C 14.742188 27.378906 14.90625 27.722656 15.515625 27.652344 C 15.519531 27.652344 15.519531 27.65625 15.515625 27.65625 C 15.386719 27.71875 14.476562 28.125 13.589844 28.3125 C 13.402344 28.355469 13.214844 28.386719 13.039062 28.398438 C 13.035156 28.398438 13.03125 28.398438 13.027344 28.398438 C 12.890625 28.402344 12.757812 28.390625 12.640625 28.378906 C 12.855469 27.878906 13.015625 27.34375 13.261719 26.835938 C 13.410156 26.542969 13.578125 26.261719 13.789062 26.007812 C 13.996094 25.753906 14.214844 25.515625 14.441406 25.289062 C 14.628906 25.109375 14.820312 24.933594 15.019531 24.765625 C 15.328125 24.496094 15.777344 24.128906 16.089844 23.960938 C 16.09375 23.960938 16.09375 23.957031 16.089844 23.957031 C 15.753906 24.066406 12.996094 25.058594 12.433594 28.066406 C 12.433594 28.066406 12.433594 28.066406 12.429688 28.066406 C 12.257812 27.917969 10.847656 26.875 12.457031 23.8125 C 12.457031 23.8125 12.464844 23.8125 12.460938 23.816406 C 12.4375 23.929688 12.351562 24.441406 12.644531 24.65625 C 12.648438 24.65625 12.648438 24.65625 12.648438 24.65625 C 12.699219 24.5625 14.414062 22.234375 17.082031 22.113281 C 17.085938 22.113281 17.085938 22.117188 17.082031 22.121094 C 17.027344 22.164062 16.660156 22.457031 16.664062 22.644531 C 16.664062 22.648438 16.667969 22.648438 16.667969 22.648438 C 16.761719 22.605469 18.726562 21.757812 19.90625 23.15625 "/><g clip-rule="nonzero" clip-path="url(#32a008371c)"><path style=" stroke:none;fill-rule:nonzero;fill:#08823f;fill-opacity:1;" d="M 57.679688 28.324219 C 57.804688 27.722656 57.910156 27.113281 57.882812 26.496094 C 57.863281 25.875 57.757812 25.257812 57.585938 24.671875 C 57.523438 24.464844 57.457031 24.265625 57.382812 24.0625 C 57.382812 24.0625 57.382812 24.058594 57.382812 24.058594 C 58.789062 22.769531 60.023438 20.238281 60.171875 19.933594 C 60.171875 19.929688 60.164062 19.925781 60.160156 19.929688 C 59.378906 20.746094 58.75 20.449219 58.691406 20.417969 C 58.6875 20.417969 58.6875 20.414062 58.6875 20.410156 C 60.339844 17.882812 59.410156 14.269531 59.410156 14.269531 C 58.945312 12.191406 59.488281 10.25 61.066406 8.394531 C 61.066406 8.390625 61.066406 8.386719 61.0625 8.386719 C 57.753906 7.796875 55.984375 11.300781 55.898438 11.472656 C 55.894531 11.476562 55.894531 11.476562 55.890625 11.472656 C 55.664062 11.214844 55.835938 10.363281 55.863281 10.234375 C 55.867188 10.230469 55.859375 10.226562 55.855469 10.230469 C 52.238281 13.535156 52.558594 18.855469 52.59375 19.046875 C 52.59375 19.050781 52.59375 19.050781 52.589844 19.050781 C 51.917969 19.09375 51.441406 18.261719 51.339844 18.074219 C 51.339844 18.066406 51.328125 18.074219 51.332031 18.078125 C 52.664062 24.316406 55.878906 24.132812 56.296875 24.144531 C 56.300781 24.144531 56.304688 24.140625 56.300781 24.136719 C 53.558594 19.214844 56.28125 14.558594 56.621094 14.011719 C 56.625 14.003906 56.632812 14.007812 56.628906 14.015625 C 56.382812 14.621094 56.1875 15.671875 56.070312 16.417969 C 55.980469 16.886719 55.914062 17.359375 55.867188 17.835938 C 55.8125 18.429688 55.785156 19.023438 55.785156 19.625 C 55.792969 20.230469 55.882812 20.832031 56.023438 21.417969 C 56.308594 22.59375 56.816406 23.6875 57.089844 24.808594 C 57.222656 25.367188 57.292969 25.933594 57.28125 26.496094 C 57.28125 27.0625 57.152344 27.621094 57.011719 28.167969 L 57.003906 28.191406 C 57.003906 28.195312 57.003906 28.199219 57.003906 28.203125 C 56.960938 28.398438 57.09375 28.59375 57.296875 28.617188 C 57.480469 28.640625 57.640625 28.503906 57.679688 28.324219 "/></g><path style=" stroke:none;fill-rule:nonzero;fill:#08823f;fill-opacity:1;" d="M 64.78125 21.035156 C 64.78125 21.03125 64.777344 21.03125 64.777344 21.035156 C 64.109375 21.894531 63.292969 22.308594 62.300781 22.292969 C 62.300781 22.292969 60.570312 22.214844 59.605469 23.167969 C 59.601562 23.167969 59.601562 23.167969 59.601562 23.167969 C 59.582031 23.144531 59.378906 22.894531 59.664062 22.476562 C 59.664062 22.476562 59.660156 22.472656 59.660156 22.472656 C 59.5625 22.546875 58.90625 23.046875 58.425781 23.621094 C 58.320312 23.738281 58.226562 23.863281 58.148438 23.984375 C 58.148438 23.988281 58.148438 23.992188 58.144531 23.992188 C 58.089844 24.09375 58.050781 24.191406 58.015625 24.28125 C 58.480469 24.320312 58.953125 24.414062 59.4375 24.429688 C 59.71875 24.4375 60 24.421875 60.273438 24.371094 C 60.542969 24.316406 60.8125 24.25 61.074219 24.171875 C 61.28125 24.109375 61.488281 24.035156 61.691406 23.957031 C 62.015625 23.835938 62.472656 23.65625 62.71875 23.492188 C 62.71875 23.488281 62.722656 23.492188 62.71875 23.496094 C 62.507812 23.695312 60.699219 25.3125 58.179688 24.554688 C 58.175781 24.554688 58.175781 24.554688 58.175781 24.554688 C 58.226562 24.738281 58.488281 26.167969 61.453125 26.1875 C 61.457031 26.1875 61.457031 26.183594 61.453125 26.179688 C 61.359375 26.15625 60.933594 26.019531 60.878906 25.722656 C 60.878906 25.722656 60.878906 25.71875 60.878906 25.71875 C 60.96875 25.71875 63.410156 25.375 64.511719 23.488281 C 64.511719 23.484375 64.507812 23.484375 64.507812 23.484375 C 64.453125 23.507812 64.085938 23.660156 63.945312 23.585938 C 63.945312 23.585938 63.945312 23.582031 63.945312 23.582031 C 64.015625 23.527344 65.40625 22.433594 64.78125 21.035156 "/><g clip-rule="nonzero" clip-path="url(#00148c7743)"><path style=" stroke:none;fill-rule:nonzero;fill:#08823f;fill-opacity:1;" d="M 56.15625 25.125 C 55.863281 25.117188 55.535156 25.082031 55.1875 24.992188 C 55.179688 25.523438 55.066406 25.988281 54.847656 26.398438 C 54.625 26.8125 54.148438 27.054688 53.425781 27.113281 C 52.695312 27.171875 52.269531 27.277344 52.136719 27.425781 C 52.003906 27.578125 51.9375 27.765625 51.9375 27.988281 C 51.9375 28.300781 52.082031 28.554688 52.375 28.742188 C 52.664062 28.933594 52.964844 29.027344 53.28125 29.027344 C 53.609375 29.027344 54.128906 28.953125 54.832031 28.800781 C 55.265625 28.707031 55.671875 28.644531 56.054688 28.605469 C 56.003906 28.410156 56 28.203125 56.042969 28 C 56.046875 27.980469 56.050781 27.960938 56.054688 27.949219 L 56.0625 27.917969 C 56.175781 27.476562 56.296875 26.964844 56.300781 26.496094 L 56.300781 26.480469 C 56.308594 26.042969 56.257812 25.585938 56.15625 25.125 "/></g><path style=" stroke:none;fill-rule:nonzero;fill:#08823f;fill-opacity:1;" d="M 61.273438 27.496094 C 61.148438 27.351562 60.777344 27.21875 60.15625 27.101562 C 59.535156 26.984375 59.128906 26.792969 58.9375 26.527344 C 58.910156 26.488281 58.882812 26.449219 58.859375 26.40625 C 58.863281 26.425781 58.863281 26.441406 58.863281 26.460938 C 58.894531 27.195312 58.773438 27.886719 58.640625 28.527344 C 58.617188 28.632812 58.585938 28.734375 58.539062 28.828125 C 58.941406 28.90625 59.265625 28.949219 59.507812 28.949219 C 60.152344 28.949219 60.640625 28.855469 60.96875 28.664062 C 61.296875 28.476562 61.460938 28.261719 61.460938 28.027344 C 61.460938 27.816406 61.398438 27.640625 61.273438 27.496094 "/><g clip-rule="nonzero" clip-path="url(#849c250dd8)"><path style=" stroke:none;fill-rule:nonzero;fill:#08823f;fill-opacity:1;" d="M 77.144531 27.304688 C 76.933594 27.15625 76.695312 27.082031 76.429688 27.082031 C 76.179688 27.082031 75.859375 27.003906 75.472656 26.84375 C 75.082031 26.6875 74.730469 26.433594 74.410156 26.089844 L 64.234375 12.371094 C 64.128906 12.226562 64.074219 12.101562 64.074219 11.996094 C 64.074219 11.847656 64.195312 11.609375 64.433594 11.277344 L 70.472656 3.167969 C 70.878906 2.609375 71.460938 2.214844 72.214844 1.992188 C 72.964844 1.765625 73.398438 1.59375 73.511719 1.476562 C 73.621094 1.359375 73.679688 1.214844 73.679688 1.042969 C 73.679688 0.742188 73.566406 0.496094 73.339844 0.296875 C 73.117188 0.101562 72.824219 0.00390625 72.46875 0.00390625 C 72.136719 0.00390625 71.65625 0.0625 71.027344 0.183594 C 70.402344 0.300781 69.96875 0.359375 69.730469 0.359375 C 69.558594 0.359375 69.191406 0.308594 68.625 0.203125 C 68.0625 0.0976562 67.605469 0.0429688 67.246094 0.0429688 C 66.851562 0.0429688 66.511719 0.136719 66.226562 0.320312 C 65.941406 0.503906 65.796875 0.746094 65.796875 1.046875 C 65.796875 1.28125 65.882812 1.472656 66.054688 1.625 C 66.226562 1.773438 66.597656 1.878906 67.164062 1.929688 C 67.730469 1.984375 68.085938 2.058594 68.222656 2.160156 C 68.363281 2.257812 68.433594 2.386719 68.433594 2.546875 C 68.433594 2.800781 68.214844 3.199219 67.78125 3.742188 L 60.289062 13.628906 C 60.308594 13.765625 60.335938 13.90625 60.363281 14.042969 C 60.402344 14.195312 60.601562 15.042969 60.644531 16.1875 L 61.394531 15.230469 C 61.511719 15.074219 61.605469 14.992188 61.671875 14.992188 C 61.738281 14.992188 61.84375 15.085938 61.988281 15.269531 L 69.0625 24.621094 C 70.050781 25.945312 71.15625 27.007812 72.378906 27.808594 C 73.601562 28.609375 74.726562 29.007812 75.757812 29.007812 C 76.246094 29.007812 76.652344 28.90625 76.976562 28.707031 C 77.300781 28.507812 77.460938 28.226562 77.460938 27.863281 C 77.460938 27.636719 77.355469 27.449219 77.144531 27.304688 "/></g><path style=" stroke:none;fill-rule:nonzero;fill:#08823f;fill-opacity:1;" d="M 61.492188 0.367188 C 61.167969 0.179688 60.753906 0.0859375 60.238281 0.0859375 C 59.605469 0.0859375 59.042969 0.164062 58.550781 0.320312 C 58.054688 0.480469 57.648438 0.558594 57.332031 0.558594 C 56.832031 0.558594 56.21875 0.488281 55.484375 0.339844 C 54.753906 0.195312 54.136719 0.125 53.636719 0.125 C 53.136719 0.125 52.742188 0.246094 52.453125 0.488281 C 52.160156 0.730469 52.019531 0.960938 52.019531 1.183594 C 52.019531 1.40625 52.082031 1.59375 52.214844 1.742188 C 52.347656 1.894531 52.765625 2.007812 53.472656 2.089844 C 54.179688 2.167969 54.640625 2.40625 54.859375 2.804688 C 55.078125 3.199219 55.1875 3.65625 55.1875 4.171875 L 55.1875 9.511719 C 55.1875 9.507812 55.191406 9.507812 55.195312 9.503906 C 55.472656 9.25 55.871094 9.179688 56.214844 9.3125 C 56.847656 8.625 57.667969 7.988281 58.652344 7.632812 L 58.652344 4.492188 C 58.652344 3.855469 58.71875 3.378906 58.859375 3.0625 C 58.996094 2.742188 59.183594 2.527344 59.414062 2.417969 C 59.644531 2.304688 60.050781 2.171875 60.628906 2.019531 C 61.210938 1.867188 61.582031 1.714844 61.738281 1.566406 C 61.898438 1.414062 61.976562 1.242188 61.976562 1.046875 C 61.976562 0.785156 61.816406 0.558594 61.492188 0.367188 "/><g style="fill:#4e342e;fill-opacity:1;"><g transform="translate(22.170284, 28.510216)"><path style="stroke:none" d="M 5.421875 -8.453125 C 5.710938 -8.453125 5.96875 -8.390625 6.1875 -8.265625 C 6.40625 -8.148438 6.570312 -8 6.6875 -7.8125 C 6.8125 -7.625 6.875 -7.414062 6.875 -7.1875 C 6.875 -6.914062 6.789062 -6.679688 6.625 -6.484375 C 6.46875 -6.285156 6.25 -6.1875 5.96875 -6.1875 C 5.75 -6.1875 5.550781 -6.253906 5.375 -6.390625 C 5.207031 -6.535156 5.125 -6.742188 5.125 -7.015625 C 5.125 -7.210938 5.179688 -7.382812 5.296875 -7.53125 C 5.410156 -7.675781 5.535156 -7.789062 5.671875 -7.875 C 5.597656 -7.976562 5.484375 -8.03125 5.328125 -8.03125 C 5.003906 -8.03125 4.703125 -7.929688 4.421875 -7.734375 C 4.148438 -7.535156 3.914062 -7.28125 3.71875 -6.96875 C 3.53125 -6.664062 3.378906 -6.34375 3.265625 -6 C 3.160156 -5.65625 3.109375 -5.332031 3.109375 -5.03125 L 3.109375 -1.640625 C 3.109375 -1.117188 3.257812 -0.769531 3.5625 -0.59375 C 3.875 -0.414062 4.289062 -0.328125 4.8125 -0.328125 L 4.8125 0 C 4.5625 -0.0078125 4.210938 -0.0195312 3.765625 -0.03125 C 3.316406 -0.0507812 2.84375 -0.0625 2.34375 -0.0625 C 1.976562 -0.0625 1.617188 -0.0507812 1.265625 -0.03125 C 0.910156 -0.0195312 0.644531 -0.0078125 0.46875 0 L 0.46875 -0.328125 C 0.90625 -0.328125 1.210938 -0.40625 1.390625 -0.5625 C 1.578125 -0.726562 1.671875 -1.035156 1.671875 -1.484375 L 1.671875 -6.484375 C 1.671875 -6.960938 1.585938 -7.316406 1.421875 -7.546875 C 1.253906 -7.773438 0.9375 -7.890625 0.46875 -7.890625 L 0.46875 -8.21875 C 0.800781 -8.1875 1.128906 -8.171875 1.453125 -8.171875 C 1.765625 -8.171875 2.0625 -8.1875 2.34375 -8.21875 C 2.625 -8.257812 2.878906 -8.320312 3.109375 -8.40625 L 3.109375 -6.40625 C 3.234375 -6.707031 3.398438 -7.015625 3.609375 -7.328125 C 3.828125 -7.648438 4.09375 -7.914062 4.40625 -8.125 C 4.71875 -8.34375 5.054688 -8.453125 5.421875 -8.453125 Z M 5.421875 -8.453125 "/></g></g><g style="fill:#4e342e;fill-opacity:1;"><g transform="translate(28.317899, 28.510216)"><path style="stroke:none" d="M 4.34375 -8.453125 C 5.28125 -8.453125 6.007812 -8.164062 6.53125 -7.59375 C 7.0625 -7.019531 7.328125 -6.132812 7.328125 -4.9375 L 1.6875 -4.9375 L 1.671875 -5.234375 L 5.796875 -5.234375 C 5.816406 -5.753906 5.773438 -6.234375 5.671875 -6.671875 C 5.566406 -7.117188 5.398438 -7.472656 5.171875 -7.734375 C 4.941406 -8.003906 4.644531 -8.140625 4.28125 -8.140625 C 3.789062 -8.140625 3.351562 -7.894531 2.96875 -7.40625 C 2.59375 -6.914062 2.367188 -6.140625 2.296875 -5.078125 L 2.34375 -5.015625 C 2.320312 -4.859375 2.304688 -4.679688 2.296875 -4.484375 C 2.285156 -4.296875 2.28125 -4.101562 2.28125 -3.90625 C 2.28125 -3.1875 2.394531 -2.566406 2.625 -2.046875 C 2.863281 -1.523438 3.171875 -1.128906 3.546875 -0.859375 C 3.929688 -0.585938 4.328125 -0.453125 4.734375 -0.453125 C 5.046875 -0.453125 5.34375 -0.5 5.625 -0.59375 C 5.914062 -0.695312 6.179688 -0.863281 6.421875 -1.09375 C 6.671875 -1.332031 6.890625 -1.648438 7.078125 -2.046875 L 7.390625 -1.921875 C 7.273438 -1.566406 7.082031 -1.222656 6.8125 -0.890625 C 6.550781 -0.566406 6.21875 -0.300781 5.8125 -0.09375 C 5.40625 0.113281 4.9375 0.21875 4.40625 0.21875 C 3.632812 0.21875 2.972656 0.046875 2.421875 -0.296875 C 1.878906 -0.648438 1.460938 -1.140625 1.171875 -1.765625 C 0.878906 -2.390625 0.734375 -3.101562 0.734375 -3.90625 C 0.734375 -4.84375 0.878906 -5.648438 1.171875 -6.328125 C 1.472656 -7.003906 1.894531 -7.523438 2.4375 -7.890625 C 2.976562 -8.265625 3.613281 -8.453125 4.34375 -8.453125 Z M 4.34375 -8.453125 "/></g></g><g style="fill:#4e342e;fill-opacity:1;"><g transform="translate(35.758899, 28.510216)"><path style="stroke:none" d="M 3.328125 -8.453125 C 3.742188 -8.453125 4.101562 -8.378906 4.40625 -8.234375 C 4.707031 -8.097656 4.925781 -7.972656 5.0625 -7.859375 C 5.414062 -7.566406 5.628906 -7.757812 5.703125 -8.4375 L 6.0625 -8.4375 C 6.039062 -8.132812 6.023438 -7.773438 6.015625 -7.359375 C 6.003906 -6.953125 6 -6.40625 6 -5.71875 L 5.640625 -5.71875 C 5.578125 -6.113281 5.46875 -6.492188 5.3125 -6.859375 C 5.15625 -7.234375 4.925781 -7.539062 4.625 -7.78125 C 4.332031 -8.019531 3.945312 -8.140625 3.46875 -8.140625 C 3.09375 -8.140625 2.78125 -8.035156 2.53125 -7.828125 C 2.28125 -7.617188 2.15625 -7.316406 2.15625 -6.921875 C 2.15625 -6.597656 2.25 -6.320312 2.4375 -6.09375 C 2.632812 -5.863281 2.882812 -5.648438 3.1875 -5.453125 C 3.5 -5.253906 3.835938 -5.039062 4.203125 -4.8125 C 4.609375 -4.550781 4.972656 -4.285156 5.296875 -4.015625 C 5.628906 -3.753906 5.894531 -3.460938 6.09375 -3.140625 C 6.289062 -2.828125 6.390625 -2.453125 6.390625 -2.015625 C 6.390625 -1.523438 6.257812 -1.113281 6 -0.78125 C 5.75 -0.445312 5.414062 -0.195312 5 -0.03125 C 4.59375 0.132812 4.144531 0.21875 3.65625 0.21875 C 3.425781 0.21875 3.207031 0.195312 3 0.15625 C 2.789062 0.125 2.585938 0.0703125 2.390625 0 C 2.285156 -0.0507812 2.175781 -0.113281 2.0625 -0.1875 C 1.957031 -0.257812 1.847656 -0.34375 1.734375 -0.4375 C 1.628906 -0.519531 1.535156 -0.515625 1.453125 -0.421875 C 1.367188 -0.328125 1.304688 -0.148438 1.265625 0.109375 L 0.890625 0.109375 C 0.910156 -0.234375 0.925781 -0.648438 0.9375 -1.140625 C 0.945312 -1.628906 0.953125 -2.273438 0.953125 -3.078125 L 1.328125 -3.078125 C 1.398438 -2.484375 1.503906 -1.960938 1.640625 -1.515625 C 1.785156 -1.066406 2.003906 -0.71875 2.296875 -0.46875 C 2.597656 -0.21875 3.015625 -0.09375 3.546875 -0.09375 C 3.753906 -0.09375 3.96875 -0.140625 4.1875 -0.234375 C 4.40625 -0.335938 4.585938 -0.5 4.734375 -0.71875 C 4.890625 -0.9375 4.96875 -1.234375 4.96875 -1.609375 C 4.96875 -2.078125 4.796875 -2.457031 4.453125 -2.75 C 4.109375 -3.050781 3.675781 -3.367188 3.15625 -3.703125 C 2.78125 -3.953125 2.421875 -4.195312 2.078125 -4.4375 C 1.742188 -4.6875 1.472656 -4.960938 1.265625 -5.265625 C 1.054688 -5.578125 0.953125 -5.953125 0.953125 -6.390625 C 0.953125 -6.867188 1.0625 -7.257812 1.28125 -7.5625 C 1.5 -7.863281 1.789062 -8.085938 2.15625 -8.234375 C 2.519531 -8.378906 2.910156 -8.453125 3.328125 -8.453125 Z M 3.328125 -8.453125 "/></g></g><g style="fill:#4e342e;fill-opacity:1;"><g transform="translate(42.257799, 28.510216)"><path style="stroke:none" d="M 2.96875 -12.5 L 2.96875 -6.53125 C 3.25 -7.25 3.632812 -7.75 4.125 -8.03125 C 4.625 -8.3125 5.144531 -8.453125 5.6875 -8.453125 C 6.09375 -8.453125 6.429688 -8.394531 6.703125 -8.28125 C 6.972656 -8.175781 7.195312 -8.03125 7.375 -7.84375 C 7.582031 -7.625 7.726562 -7.351562 7.8125 -7.03125 C 7.894531 -6.71875 7.9375 -6.289062 7.9375 -5.75 L 7.9375 -1.484375 C 7.9375 -1.035156 8.03125 -0.726562 8.21875 -0.5625 C 8.40625 -0.40625 8.71875 -0.328125 9.15625 -0.328125 L 9.15625 0 C 8.96875 -0.0078125 8.6875 -0.0195312 8.3125 -0.03125 C 7.945312 -0.0507812 7.585938 -0.0625 7.234375 -0.0625 C 6.878906 -0.0625 6.535156 -0.0507812 6.203125 -0.03125 C 5.867188 -0.0195312 5.617188 -0.0078125 5.453125 0 L 5.453125 -0.328125 C 5.828125 -0.328125 6.09375 -0.40625 6.25 -0.5625 C 6.414062 -0.726562 6.5 -1.035156 6.5 -1.484375 L 6.5 -6.09375 C 6.5 -6.425781 6.472656 -6.726562 6.421875 -7 C 6.367188 -7.28125 6.25 -7.503906 6.0625 -7.671875 C 5.875 -7.847656 5.585938 -7.9375 5.203125 -7.9375 C 4.765625 -7.9375 4.378906 -7.8125 4.046875 -7.5625 C 3.710938 -7.320312 3.445312 -6.984375 3.25 -6.546875 C 3.0625 -6.109375 2.96875 -5.609375 2.96875 -5.046875 L 2.96875 -1.484375 C 2.96875 -1.035156 3.046875 -0.726562 3.203125 -0.5625 C 3.367188 -0.40625 3.644531 -0.328125 4.03125 -0.328125 L 4.03125 0 C 3.851562 -0.0078125 3.597656 -0.0195312 3.265625 -0.03125 C 2.929688 -0.0507812 2.585938 -0.0625 2.234375 -0.0625 C 1.878906 -0.0625 1.515625 -0.0507812 1.140625 -0.03125 C 0.773438 -0.0195312 0.5 -0.0078125 0.3125 0 L 0.3125 -0.328125 C 0.75 -0.328125 1.0625 -0.40625 1.25 -0.5625 C 1.4375 -0.726562 1.53125 -1.035156 1.53125 -1.484375 L 1.53125 -10.59375 C 1.53125 -11.070312 1.441406 -11.425781 1.265625 -11.65625 C 1.097656 -11.882812 0.78125 -12 0.3125 -12 L 0.3125 -12.328125 C 0.65625 -12.296875 0.988281 -12.28125 1.3125 -12.28125 C 1.613281 -12.28125 1.90625 -12.296875 2.1875 -12.328125 C 2.476562 -12.367188 2.738281 -12.425781 2.96875 -12.5 Z M 2.96875 -12.5 "/></g></g><g style="fill:#4e342e;fill-opacity:1;"><g transform="translate(76.912226, 28.510216)"><path style="stroke:none" d="M 2.734375 0.109375 C 2.296875 0.109375 1.914062 0.0234375 1.59375 -0.140625 C 1.28125 -0.304688 1.039062 -0.535156 0.875 -0.828125 C 0.707031 -1.128906 0.625 -1.476562 0.625 -1.875 C 0.625 -2.34375 0.734375 -2.722656 0.953125 -3.015625 C 1.171875 -3.316406 1.445312 -3.554688 1.78125 -3.734375 C 2.125 -3.921875 2.484375 -4.070312 2.859375 -4.1875 C 3.242188 -4.3125 3.601562 -4.425781 3.9375 -4.53125 C 4.28125 -4.644531 4.5625 -4.773438 4.78125 -4.921875 C 5 -5.078125 5.109375 -5.28125 5.109375 -5.53125 L 5.109375 -6.515625 C 5.109375 -6.960938 5.039062 -7.300781 4.90625 -7.53125 C 4.769531 -7.769531 4.59375 -7.925781 4.375 -8 C 4.15625 -8.082031 3.90625 -8.125 3.625 -8.125 C 3.351562 -8.125 3.066406 -8.085938 2.765625 -8.015625 C 2.460938 -7.941406 2.222656 -7.785156 2.046875 -7.546875 C 2.242188 -7.503906 2.414062 -7.398438 2.5625 -7.234375 C 2.71875 -7.066406 2.796875 -6.847656 2.796875 -6.578125 C 2.796875 -6.316406 2.707031 -6.109375 2.53125 -5.953125 C 2.363281 -5.796875 2.148438 -5.71875 1.890625 -5.71875 C 1.578125 -5.71875 1.347656 -5.816406 1.203125 -6.015625 C 1.054688 -6.210938 0.984375 -6.429688 0.984375 -6.671875 C 0.984375 -6.953125 1.050781 -7.175781 1.1875 -7.34375 C 1.332031 -7.507812 1.507812 -7.671875 1.71875 -7.828125 C 1.96875 -7.992188 2.285156 -8.140625 2.671875 -8.265625 C 3.054688 -8.390625 3.5 -8.453125 4 -8.453125 C 4.425781 -8.453125 4.796875 -8.398438 5.109375 -8.296875 C 5.421875 -8.191406 5.675781 -8.046875 5.875 -7.859375 C 6.15625 -7.597656 6.335938 -7.285156 6.421875 -6.921875 C 6.503906 -6.554688 6.546875 -6.117188 6.546875 -5.609375 L 6.546875 -1.171875 C 6.546875 -0.898438 6.582031 -0.707031 6.65625 -0.59375 C 6.738281 -0.476562 6.867188 -0.421875 7.046875 -0.421875 C 7.160156 -0.421875 7.269531 -0.445312 7.375 -0.5 C 7.476562 -0.550781 7.609375 -0.632812 7.765625 -0.75 L 7.9375 -0.484375 C 7.707031 -0.304688 7.492188 -0.160156 7.296875 -0.046875 C 7.097656 0.0546875 6.828125 0.109375 6.484375 0.109375 C 6.171875 0.109375 5.910156 0.0546875 5.703125 -0.046875 C 5.503906 -0.148438 5.351562 -0.304688 5.25 -0.515625 C 5.15625 -0.722656 5.109375 -0.988281 5.109375 -1.3125 C 4.816406 -0.832031 4.472656 -0.472656 4.078125 -0.234375 C 3.679688 -0.00390625 3.234375 0.109375 2.734375 0.109375 Z M 3.3125 -0.53125 C 3.65625 -0.53125 3.976562 -0.628906 4.28125 -0.828125 C 4.59375 -1.035156 4.867188 -1.335938 5.109375 -1.734375 L 5.109375 -4.875 C 4.984375 -4.6875 4.796875 -4.53125 4.546875 -4.40625 C 4.304688 -4.289062 4.039062 -4.171875 3.75 -4.046875 C 3.46875 -3.921875 3.191406 -3.773438 2.921875 -3.609375 C 2.660156 -3.453125 2.445312 -3.238281 2.28125 -2.96875 C 2.113281 -2.707031 2.03125 -2.363281 2.03125 -1.9375 C 2.03125 -1.507812 2.144531 -1.164062 2.375 -0.90625 C 2.601562 -0.65625 2.914062 -0.53125 3.3125 -0.53125 Z M 3.3125 -0.53125 "/></g></g><g style="fill:#4e342e;fill-opacity:1;"><g transform="translate(84.225488, 28.510216)"><path style="stroke:none" d="M 5.421875 -8.453125 C 5.710938 -8.453125 5.96875 -8.390625 6.1875 -8.265625 C 6.40625 -8.148438 6.570312 -8 6.6875 -7.8125 C 6.8125 -7.625 6.875 -7.414062 6.875 -7.1875 C 6.875 -6.914062 6.789062 -6.679688 6.625 -6.484375 C 6.46875 -6.285156 6.25 -6.1875 5.96875 -6.1875 C 5.75 -6.1875 5.550781 -6.253906 5.375 -6.390625 C 5.207031 -6.535156 5.125 -6.742188 5.125 -7.015625 C 5.125 -7.210938 5.179688 -7.382812 5.296875 -7.53125 C 5.410156 -7.675781 5.535156 -7.789062 5.671875 -7.875 C 5.597656 -7.976562 5.484375 -8.03125 5.328125 -8.03125 C 5.003906 -8.03125 4.703125 -7.929688 4.421875 -7.734375 C 4.148438 -7.535156 3.914062 -7.28125 3.71875 -6.96875 C 3.53125 -6.664062 3.378906 -6.34375 3.265625 -6 C 3.160156 -5.65625 3.109375 -5.332031 3.109375 -5.03125 L 3.109375 -1.640625 C 3.109375 -1.117188 3.257812 -0.769531 3.5625 -0.59375 C 3.875 -0.414062 4.289062 -0.328125 4.8125 -0.328125 L 4.8125 0 C 4.5625 -0.0078125 4.210938 -0.0195312 3.765625 -0.03125 C 3.316406 -0.0507812 2.84375 -0.0625 2.34375 -0.0625 C 1.976562 -0.0625 1.617188 -0.0507812 1.265625 -0.03125 C 0.910156 -0.0195312 0.644531 -0.0078125 0.46875 0 L 0.46875 -0.328125 C 0.90625 -0.328125 1.210938 -0.40625 1.390625 -0.5625 C 1.578125 -0.726562 1.671875 -1.035156 1.671875 -1.484375 L 1.671875 -6.484375 C 1.671875 -6.960938 1.585938 -7.316406 1.421875 -7.546875 C 1.253906 -7.773438 0.9375 -7.890625 0.46875 -7.890625 L 0.46875 -8.21875 C 0.800781 -8.1875 1.128906 -8.171875 1.453125 -8.171875 C 1.765625 -8.171875 2.0625 -8.1875 2.34375 -8.21875 C 2.625 -8.257812 2.878906 -8.320312 3.109375 -8.40625 L 3.109375 -6.40625 C 3.234375 -6.707031 3.398438 -7.015625 3.609375 -7.328125 C 3.828125 -7.648438 4.09375 -7.914062 4.40625 -8.125 C 4.71875 -8.34375 5.054688 -8.453125 5.421875 -8.453125 Z M 5.421875 -8.453125 "/></g></g><g style="fill:#4e342e;fill-opacity:1;"><g transform="translate(90.692459, 28.510216)"><path style="stroke:none" d="M 3.03125 -10.875 L 3.03125 -8.203125 L 5.390625 -8.203125 L 5.390625 -7.890625 L 3.03125 -7.890625 L 3.03125 -1.703125 C 3.03125 -1.203125 3.117188 -0.847656 3.296875 -0.640625 C 3.484375 -0.441406 3.738281 -0.34375 4.0625 -0.34375 C 4.375 -0.34375 4.644531 -0.472656 4.875 -0.734375 C 5.113281 -1.003906 5.320312 -1.445312 5.5 -2.0625 L 5.8125 -1.984375 C 5.707031 -1.359375 5.492188 -0.832031 5.171875 -0.40625 C 4.859375 0.0078125 4.378906 0.21875 3.734375 0.21875 C 3.367188 0.21875 3.066406 0.171875 2.828125 0.078125 C 2.597656 -0.00390625 2.394531 -0.128906 2.21875 -0.296875 C 1.988281 -0.546875 1.828125 -0.835938 1.734375 -1.171875 C 1.640625 -1.515625 1.59375 -1.96875 1.59375 -2.53125 L 1.59375 -7.890625 L 0.0625 -7.890625 L 0.0625 -8.203125 L 1.59375 -8.203125 L 1.59375 -10.65625 C 1.863281 -10.664062 2.117188 -10.6875 2.359375 -10.71875 C 2.609375 -10.75 2.832031 -10.800781 3.03125 -10.875 Z M 3.03125 -10.875 "/></g></g></g></svg>